<svg version="1.1" xmlns="http://www.w3.org/2000/svg" xmlns:xlink="http://www.w3.org/1999/xlink" width="1037.7958984375" height="628"><defs/><g><g transform="translate(-414,-214) scale(1,1)"><rect fill="#C0C0C0" stroke="none" x="1007" y="513" width="376.52783203125" height="92" opacity="0.2"/></g><g transform="translate(-414,-214) scale(1,1)"><rect fill="#C0C0C0" stroke="none" x="1291.77880859375" y="495" width="100.7490234375" height="22" opacity="0.2"/></g><g transform="translate(-414,-214) scale(1,1)"><rect fill="#ffffff" stroke="none" x="1000" y="506" width="376.52783203125" height="92"/></g><g transform="translate(-414,-214) scale(1,1)"><path fill="none" stroke="#000000" d="M 1000 506 L 1376.52783203125 506 L 1376.52783203125 598 L 1000 598 L 1000 506 Z Z" stroke-miterlimit="10"/></g><g transform="translate(-414,-214) scale(1,1)"><path fill="none" stroke="#000000" d="M 1000 546 L 1376.52783203125 546" stroke-miterlimit="10"/></g><g transform="translate(-414,-214) scale(1,1)"><g><path fill="none" stroke="none"/><text fill="#000000" stroke="none" font-family="Arial" font-size="13px" font-style="normal" font-weight="bold" text-decoration="none" x="1142.37353515625" y="525.5">GuidedMutation</text></g></g><g transform="translate(-414,-214) scale(1,1)"><g><path fill="none" stroke="none"/><text fill="#000000" stroke="none" font-family="Arial" font-size="13px" font-style="normal" font-weight="normal" text-decoration="none" x="1141.6689453125" y="540.5">(from operators)</text></g></g><g transform="translate(-414,-214) scale(1,1)"><g><path fill="none" stroke="none"/><text fill="#000000" stroke="none" font-family="Arial" font-size="13px" font-style="normal" font-weight="normal" text-decoration="none" x="1005" y="563.5">+mutateOffspring(offspring: T): void</text></g></g><g transform="translate(-414,-214) scale(1,1)"><g><path fill="none" stroke="none"/><text fill="#000000" stroke="none" font-family="Arial" font-size="13px" font-style="normal" font-weight="normal" text-decoration="none" x="1005" y="578.5">#doRandomMutation(offspring: Chromosome): void</text></g></g><g transform="translate(-414,-214) scale(1,1)"><g><path fill="none" stroke="none"/><text fill="#000000" stroke="none" font-family="Arial" font-size="13px" font-style="normal" font-weight="normal" text-decoration="none" x="1005" y="593.5">#insertRandomStatement(chromosome: Chromosome): void</text></g></g><g transform="translate(-414,-214) scale(1,1)"><rect fill="#ffffff" stroke="none" x="1284.77880859375" y="488" width="100.7490234375" height="22"/></g><g transform="translate(-414,-214) scale(1,1)"><path fill="none" stroke="#000000" d="M 1284.77880859375 488 L 1385.52783203125 488 L 1385.52783203125 510 L 1284.77880859375 510 L 1284.77880859375 488 Z Z" stroke-miterlimit="10" stroke-dasharray="3"/></g><g transform="translate(-414,-214) scale(1,1)"><g><path fill="none" stroke="none"/><text fill="#000000" stroke="none" font-family="Arial" font-size="13px" font-style="normal" font-weight="normal" text-decoration="none" x="1289.77880859375" y="505.5">T: Chromosome</text></g></g><g transform="translate(-414,-214) scale(1,1)"><rect fill="#C0C0C0" stroke="none" x="1007" y="383" width="441.7958984375" height="92" opacity="0.2"/></g><g transform="translate(-414,-214) scale(1,1)"><rect fill="#ffffff" stroke="none" x="1000" y="376" width="441.7958984375" height="92"/></g><g transform="translate(-414,-214) scale(1,1)"><path fill="none" stroke="#000000" d="M 1000 376 L 1441.7958984375 376 L 1441.7958984375 468 L 1000 468 L 1000 376 Z Z" stroke-miterlimit="10"/></g><g transform="translate(-414,-214) scale(1,1)"><path fill="none" stroke="#000000" d="M 1000 416 L 1441.7958984375 416" stroke-miterlimit="10"/></g><g transform="translate(-414,-214) scale(1,1)"><g><path fill="none" stroke="none"/><text fill="#000000" stroke="none" font-family="Arial" font-size="13px" font-style="normal" font-weight="bold" text-decoration="none" x="1137.435791015625" y="395.5">GuidedSinglePointCrossover</text></g></g><g transform="translate(-414,-214) scale(1,1)"><g><path fill="none" stroke="none"/><text fill="#000000" stroke="none" font-family="Arial" font-size="13px" font-style="normal" font-weight="normal" text-decoration="none" x="1174.302978515625" y="410.5">(from operators)</text></g></g><g transform="translate(-414,-214) scale(1,1)"><g><path fill="none" stroke="none"/><text fill="#000000" stroke="none" font-family="Arial" font-size="13px" font-style="normal" font-weight="normal" text-decoration="none" x="1005" y="433.5">+crossOver(parent1: Chromosome, parent2: Chromosome): void</text></g></g><g transform="translate(-414,-214) scale(1,1)"><g><path fill="none" stroke="none"/><text fill="#000000" stroke="none" font-family="Arial" font-size="13px" font-style="normal" font-weight="normal" text-decoration="none" x="1005" y="448.5">#isValid(chromosome: Chromosome): boolean</text></g></g><g transform="translate(-414,-214) scale(1,1)"><g><path fill="none" stroke="none"/><text fill="#000000" stroke="none" font-family="Arial" font-size="13px" font-style="normal" font-weight="normal" text-decoration="none" x="1005" y="463.5">-singlePointCrossover(parent1: Chromosome, parent2: Chromosome): void</text></g></g><g transform="translate(-414,-214) scale(1,1)"><rect fill="#C0C0C0" stroke="none" x="1162" y="303" width="130.3544921875" height="34" opacity="0.2"/></g><g transform="translate(-414,-214) scale(1,1)"><rect fill="#ffffff" stroke="none" x="1155" y="296" width="130.3544921875" height="34"/></g><g transform="translate(-414,-214) scale(1,1)"><path fill="none" stroke="#000000" d="M 1155 296 L 1285.3544921875 296 L 1285.3544921875 330 L 1155 330 L 1155 296 Z Z" stroke-miterlimit="10"/></g><g transform="translate(-414,-214) scale(1,1)"><path fill="none" stroke="#000000" d="M 1155 321 L 1285.3544921875 321" stroke-miterlimit="10"/></g><g transform="translate(-414,-214) scale(1,1)"><g><path fill="none" stroke="none"/><text fill="#000000" stroke="none" font-family="Arial" font-size="13px" font-style="normal" font-weight="bold" text-decoration="none" x="1164.187744140625" y="315.5">CrossOverFunction</text></g></g><g transform="translate(-414,-214) scale(1,1)"><path fill="none" stroke="#000000" d="M 1220 375 L 1220 331" stroke-miterlimit="10"/></g><g transform="translate(-414,-214) scale(1,1)"><path fill="#FFFFFF" stroke="none" d="M 1228.419035512032 351.3253497152483 L 1220 331 L 1211.580964487968 351.3253497152483"/></g><g transform="translate(-414,-214) scale(1,1)"><path fill="none" stroke="#000000" d="M 1228.419035512032 351.3253497152483 L 1220 331 L 1211.580964487968 351.3253497152483 L 1228.419035512032 351.3253497152483" stroke-miterlimit="10"/></g><g transform="translate(-414,-214) scale(1,1)"><rect fill="#C0C0C0" stroke="none" x="462" y="329" width="433.244140625" height="242" opacity="0.2"/></g><g transform="translate(-414,-214) scale(1,1)"><rect fill="#C0C0C0" stroke="none" x="803.4951171875" y="311" width="100.7490234375" height="22" opacity="0.2"/></g><g transform="translate(-414,-214) scale(1,1)"><rect fill="#ffffff" stroke="none" x="455" y="322" width="433.244140625" height="242"/></g><g transform="translate(-414,-214) scale(1,1)"><path fill="none" stroke="#000000" d="M 455 322 L 888.244140625 322 L 888.244140625 564 L 455 564 L 455 322 Z Z" stroke-miterlimit="10"/></g><g transform="translate(-414,-214) scale(1,1)"><path fill="none" stroke="#000000" d="M 455 362 L 888.244140625 362" stroke-miterlimit="10"/></g><g transform="translate(-414,-214) scale(1,1)"><g><path fill="none" stroke="none"/><text fill="#000000" stroke="none" font-family="Arial" font-size="13px" font-style="normal" font-weight="bold" text-decoration="none" x="600.8076171875" y="341.5">GuidedGeneticAlgorithm</text></g></g><g transform="translate(-414,-214) scale(1,1)"><g><path fill="none" stroke="none"/><text fill="#000000" stroke="none" font-family="Arial" font-size="13px" font-style="normal" font-weight="normal" text-decoration="none" x="629.36572265625" y="356.5">(from strategy)</text></g></g><g transform="translate(-414,-214) scale(1,1)"><g><path fill="none" stroke="none"/><text fill="#000000" stroke="none" font-family="Arial" font-size="13px" font-style="normal" font-weight="normal" text-decoration="none" x="460" y="379.5">«constructor»+GuidedGeneticAlgorithm(factory: ChromosomeFactory)</text></g></g><g transform="translate(-414,-214) scale(1,1)"><g><path fill="none" stroke="none"/><text fill="#000000" stroke="none" font-family="Arial" font-size="13px" font-style="normal" font-weight="normal" text-decoration="none" x="460" y="394.5">+setFitnessFunction(): void</text></g></g><g transform="translate(-414,-214) scale(1,1)"><g><path fill="none" stroke="none"/><text fill="#000000" stroke="none" font-family="Arial" font-size="13px" font-style="normal" font-weight="normal" text-decoration="none" x="460" y="409.5">+generateSolution(): void</text></g></g><g transform="translate(-414,-214) scale(1,1)"><g><path fill="none" stroke="none"/><text fill="#000000" stroke="none" font-family="Arial" font-size="13px" font-style="normal" font-weight="normal" text-decoration="none" x="460" y="424.5">#evolve(): void</text></g></g><g transform="translate(-414,-214) scale(1,1)"><g><path fill="none" stroke="none"/><text fill="#000000" stroke="none" font-family="Arial" font-size="13px" font-style="normal" font-weight="normal" text-decoration="none" x="460" y="439.5">#elitism(): T[*]</text></g></g><g transform="translate(-414,-214) scale(1,1)"><g><path fill="none" stroke="none"/><text fill="#000000" stroke="none" font-family="Arial" font-size="13px" font-style="normal" font-weight="normal" text-decoration="none" x="460" y="454.5">+initializePopulation(): void</text></g></g><g transform="translate(-414,-214) scale(1,1)"><g><path fill="none" stroke="none"/><text fill="#000000" stroke="none" font-family="Arial" font-size="13px" font-style="normal" font-weight="normal" text-decoration="none" x="460" y="469.5">#sortPopulation(): void</text></g></g><g transform="translate(-414,-214) scale(1,1)"><g><path fill="none" stroke="none"/><text fill="#000000" stroke="none" font-family="Arial" font-size="13px" font-style="normal" font-weight="normal" text-decoration="none" x="460" y="484.5">-calculateFitness(): void</text></g></g><g transform="translate(-414,-214) scale(1,1)"><g><path fill="none" stroke="none"/><text fill="#000000" stroke="none" font-family="Arial" font-size="13px" font-style="normal" font-weight="normal" text-decoration="none" x="460" y="499.5">-calculateFitness(chromosome: T): void</text></g></g><g transform="translate(-414,-214) scale(1,1)"><g><path fill="none" stroke="none"/><text fill="#000000" stroke="none" font-family="Arial" font-size="13px" font-style="normal" font-weight="normal" text-decoration="none" x="460" y="514.5">-generatePopulation(populationSize: int): void</text></g></g><g transform="translate(-414,-214) scale(1,1)"><g><path fill="none" stroke="none"/><text fill="#000000" stroke="none" font-family="Arial" font-size="13px" font-style="normal" font-weight="normal" text-decoration="none" x="460" y="529.5">+isFinished(): boolean</text></g></g><g transform="translate(-414,-214) scale(1,1)"><g><path fill="none" stroke="none"/><text fill="#000000" stroke="none" font-family="Arial" font-size="13px" font-style="normal" font-weight="normal" text-decoration="none" x="460" y="544.5">-getBestFitness(): double</text></g></g><g transform="translate(-414,-214) scale(1,1)"><g><path fill="none" stroke="none"/><text fill="#000000" stroke="none" font-family="Arial" font-size="13px" font-style="normal" font-weight="normal" text-decoration="none" x="460" y="559.5">+getBestIndividual(): T</text></g></g><g transform="translate(-414,-214) scale(1,1)"><rect fill="#ffffff" stroke="none" x="796.4951171875" y="304" width="100.7490234375" height="22"/></g><g transform="translate(-414,-214) scale(1,1)"><path fill="none" stroke="#000000" d="M 796.4951171875 304 L 897.244140625 304 L 897.244140625 326 L 796.4951171875 326 L 796.4951171875 304 Z Z" stroke-miterlimit="10" stroke-dasharray="3"/></g><g transform="translate(-414,-214) scale(1,1)"><g><path fill="none" stroke="none"/><text fill="#000000" stroke="none" font-family="Arial" font-size="13px" font-style="normal" font-weight="normal" text-decoration="none" x="801.4951171875" y="321.5">T: Chromosome</text></g></g><g transform="translate(-414,-214) scale(1,1)"><rect fill="#C0C0C0" stroke="none" x="445" y="687" width="540.4384765625" height="152" opacity="0.2"/></g><g transform="translate(-414,-214) scale(1,1)"><rect fill="#ffffff" stroke="none" x="438" y="680" width="540.4384765625" height="152"/></g><g transform="translate(-414,-214) scale(1,1)"><path fill="none" stroke="#000000" d="M 438 680 L 978.4384765625 680 L 978.4384765625 832 L 438 832 L 438 680 Z Z" stroke-miterlimit="10"/></g><g transform="translate(-414,-214) scale(1,1)"><path fill="none" stroke="#000000" d="M 438 720 L 978.4384765625 720" stroke-miterlimit="10"/></g><g transform="translate(-414,-214) scale(1,1)"><g><path fill="none" stroke="none"/><text fill="#000000" stroke="none" font-family="Arial" font-size="13px" font-style="normal" font-weight="bold" text-decoration="none" x="667.51171875" y="699.5">WeightedSum</text></g></g><g transform="translate(-414,-214) scale(1,1)"><g><path fill="none" stroke="none"/><text fill="#000000" stroke="none" font-family="Arial" font-size="13px" font-style="normal" font-weight="normal" text-decoration="none" x="647.532470703125" y="714.5">(from fitnessfunction)</text></g></g><g transform="translate(-414,-214) scale(1,1)"><g><path fill="none" stroke="none"/><text fill="#000000" stroke="none" font-family="Arial" font-size="13px" font-style="normal" font-weight="normal" text-decoration="none" x="443" y="737.5">«constructor»+WeightedSum()</text></g></g><g transform="translate(-414,-214) scale(1,1)"><g><path fill="none" stroke="none"/><text fill="#000000" stroke="none" font-family="Arial" font-size="13px" font-style="normal" font-weight="normal" text-decoration="none" x="443" y="752.5">+getFitness(testChromosome: TestChromosome, executionResult: ExecutionResult): double</text></g></g><g transform="translate(-414,-214) scale(1,1)"><g><path fill="none" stroke="none"/><text fill="#000000" stroke="none" font-family="Arial" font-size="13px" font-style="normal" font-weight="normal" text-decoration="none" x="443" y="767.5">+compareTo(testFitnessFunction: TestFitnessFunction): int</text></g></g><g transform="translate(-414,-214) scale(1,1)"><g><path fill="none" stroke="none"/><text fill="#000000" stroke="none" font-family="Arial" font-size="13px" font-style="normal" font-weight="normal" text-decoration="none" x="443" y="782.5">+hashCode(): int</text></g></g><g transform="translate(-414,-214) scale(1,1)"><g><path fill="none" stroke="none"/><text fill="#000000" stroke="none" font-family="Arial" font-size="13px" font-style="normal" font-weight="normal" text-decoration="none" x="443" y="797.5">+equals(obj: Object): boolean</text></g></g><g transform="translate(-414,-214) scale(1,1)"><g><path fill="none" stroke="none"/><text fill="#000000" stroke="none" font-family="Arial" font-size="13px" font-style="normal" font-weight="normal" text-decoration="none" x="443" y="812.5">+getTargetClass(): String</text></g></g><g transform="translate(-414,-214) scale(1,1)"><g><path fill="none" stroke="none"/><text fill="#000000" stroke="none" font-family="Arial" font-size="13px" font-style="normal" font-weight="normal" text-decoration="none" x="443" y="827.5">+getTargetMethod(): String</text></g></g><g transform="translate(-414,-214) scale(1,1)"><rect fill="#C0C0C0" stroke="none" x="648" y="599" width="135.1533203125" height="44" opacity="0.2"/></g><g transform="translate(-414,-214) scale(1,1)"><rect fill="#ffffff" stroke="none" x="641" y="592" width="135.1533203125" height="44"/></g><g transform="translate(-414,-214) scale(1,1)"><path fill="none" stroke="#000000" d="M 641 592 L 776.1533203125 592 L 776.1533203125 636 L 641 636 L 641 592 Z Z" stroke-miterlimit="10"/></g><g transform="translate(-414,-214) scale(1,1)"><path fill="none" stroke="#000000" d="M 641 617 L 776.1533203125 617" stroke-miterlimit="10"/></g><g transform="translate(-414,-214) scale(1,1)"><path fill="none" stroke="#000000" d="M 641 627 L 776.1533203125 627" stroke-miterlimit="10"/></g><g transform="translate(-414,-214) scale(1,1)"><g><path fill="none" stroke="none"/><text fill="#000000" stroke="none" font-family="Arial" font-size="13px" font-style="normal" font-weight="bold" text-decoration="none" x="650.77490234375" y="611.5">TestFitnessFunction</text></g></g><g transform="translate(-414,-214) scale(1,1)"><path fill="none" stroke="#000000" d="M 708 679 L 708 637" stroke-miterlimit="10"/></g><g transform="translate(-414,-214) scale(1,1)"><path fill="#FFFFFF" stroke="none" d="M 716.419035512032 657.3253497152483 L 708 637 L 699.580964487968 657.3253497152483"/></g><g transform="translate(-414,-214) scale(1,1)"><path fill="none" stroke="#000000" d="M 716.419035512032 657.3253497152483 L 708 637 L 699.580964487968 657.3253497152483 L 716.419035512032 657.3253497152483" stroke-miterlimit="10"/></g><g transform="translate(-414,-214) scale(1,1)"><rect fill="#C0C0C0" stroke="none" x="623" y="231" width="118.0654296875" height="44" opacity="0.2"/></g><g transform="translate(-414,-214) scale(1,1)"><rect fill="#ffffff" stroke="none" x="616" y="224" width="118.0654296875" height="44"/></g><g transform="translate(-414,-214) scale(1,1)"><path fill="none" stroke="#000000" d="M 616 224 L 734.0654296875 224 L 734.0654296875 268 L 616 268 L 616 224 Z Z" stroke-miterlimit="10"/></g><g transform="translate(-414,-214) scale(1,1)"><path fill="none" stroke="#000000" d="M 616 249 L 734.0654296875 249" stroke-miterlimit="10"/></g><g transform="translate(-414,-214) scale(1,1)"><path fill="none" stroke="#000000" d="M 616 259 L 734.0654296875 259" stroke-miterlimit="10"/></g><g transform="translate(-414,-214) scale(1,1)"><g><path fill="none" stroke="none"/><text fill="#000000" stroke="none" font-family="Arial" font-size="13px" font-style="normal" font-weight="bold" text-decoration="none" x="625.17822265625" y="243.5">GeneticAlgorithm</text></g></g><g transform="translate(-414,-214) scale(1,1)"><path fill="none" stroke="#000000" d="M 675 303 L 675 269" stroke-miterlimit="10"/></g><g transform="translate(-414,-214) scale(1,1)"><path fill="#FFFFFF" stroke="none" d="M 683.419035512032 289.3253497152483 L 675 269 L 666.580964487968 289.3253497152483"/></g><g transform="translate(-414,-214) scale(1,1)"><path fill="none" stroke="#000000" d="M 683.419035512032 289.3253497152483 L 675 269 L 666.580964487968 289.3253497152483 L 683.419035512032 289.3253497152483" stroke-miterlimit="10"/></g><g transform="translate(-414,-214) scale(1,1)"><path fill="none" stroke="#000000" d="M 616 248 L 424 248 L 424 622 L 641 622" stroke-miterlimit="10"/></g><g transform="translate(-414,-214) scale(1,1)"><g><path fill="none" stroke="none"/><text fill="#000000" stroke="none" font-family="Arial" font-size="13px" font-style="normal" font-weight="normal" text-decoration="none" x="568.5" y="268.5">+drives</text></g></g><g transform="translate(-414,-214) scale(1,1)"><g><path fill="none" stroke="none"/><text fill="#000000" stroke="none" font-family="Arial" font-size="13px" font-style="normal" font-weight="normal" text-decoration="none" x="597.5" y="613.5">+uses</text></g></g><g transform="translate(-414,-214) scale(1,1)"><g><path fill="none" stroke="none"/><text fill="#000000" stroke="none" font-family="Arial" font-size="13px" font-style="normal" font-weight="normal" text-decoration="none" x="609.5" y="640.5">1..*</text></g></g><g transform="translate(-414,-214) scale(1,1)"><path fill="none" stroke="#000000" d="M 898 432 L 1000 432" stroke-miterlimit="10"/></g><g transform="translate(-414,-214) scale(1,1)"><g><path fill="none" stroke="none"/><text fill="#000000" stroke="none" font-family="Arial" font-size="13px" font-style="normal" font-weight="normal" text-decoration="none" x="929.385009765625" y="423.5">+using</text></g></g><g transform="translate(-414,-214) scale(1,1)"><g><path fill="none" stroke="none"/><text fill="#000000" stroke="none" font-family="Arial" font-size="13px" font-style="normal" font-weight="normal" text-decoration="none" x="966.5" y="452.5">+op</text></g></g><g transform="translate(-414,-214) scale(1,1)"><g><path fill="none" stroke="none"/><text fill="#000000" stroke="none" font-family="Arial" font-size="13px" font-style="normal" font-weight="normal" text-decoration="none" x="967.5" y="468.5">0..1</text></g></g><g transform="translate(-414,-214) scale(1,1)"><path fill="none" stroke="#000000" d="M 898 528 L 1000 528" stroke-miterlimit="10"/></g><g transform="translate(-414,-214) scale(1,1)"><g><path fill="none" stroke="none"/><text fill="#000000" stroke="none" font-family="Arial" font-size="13px" font-style="normal" font-weight="normal" text-decoration="none" x="929.5" y="519.5">+using</text></g></g><g transform="translate(-414,-214) scale(1,1)"><g><path fill="none" stroke="none"/><text fill="#000000" stroke="none" font-family="Arial" font-size="13px" font-style="normal" font-weight="normal" text-decoration="none" x="966.5" y="548.5">+op</text></g></g><g transform="translate(-414,-214) scale(1,1)"><g><path fill="none" stroke="none"/><text fill="#000000" stroke="none" font-family="Arial" font-size="13px" font-style="normal" font-weight="normal" text-decoration="none" x="967.5" y="564.5">0..1</text></g></g></g></svg>