<svg version="1.1" xmlns="http://www.w3.org/2000/svg" xmlns:xlink="http://www.w3.org/1999/xlink" width="512.6611328125" height="409"><defs/><g><g transform="translate(-10,-10) scale(1,1)"><rect fill="#C0C0C0" stroke="none" x="241.022216796875" y="27" width="19.600000000000023" height="15" opacity="0.2"/></g><g transform="translate(-10,-10) scale(1,1)"><rect fill="#C0C0C0" stroke="none" x="241.022216796875" y="41" width="49" height="25" opacity="0.2"/></g><g transform="translate(-10,-10) scale(1,1)"><rect fill="#ffffff" stroke="none" x="234.022216796875" y="35" width="49" height="24"/></g><g transform="translate(-10,-10) scale(1,1)"><path fill="none" stroke="#000000" d="M 234.022216796875 35 L 283.022216796875 35 L 283.022216796875 59 L 234.022216796875 59 L 234.022216796875 35 Z Z" stroke-miterlimit="10"/></g><g transform="translate(-10,-10) scale(1,1)"><rect fill="#ffffff" stroke="none" x="234.022216796875" y="20" width="19.599999999999994" height="15"/></g><g transform="translate(-10,-10) scale(1,1)"><path fill="none" stroke="#000000" d="M 234.022216796875 20 L 253.622216796875 20 L 253.622216796875 35 L 234.022216796875 35 L 234.022216796875 20 Z Z" stroke-miterlimit="10"/></g><g transform="translate(-10,-10) scale(1,1)"><rect fill="#ffffff" stroke="none" x="234.022216796875" y="34" width="49" height="25"/></g><g transform="translate(-10,-10) scale(1,1)"><path fill="none" stroke="#000000" d="M 234.022216796875 34 L 283.022216796875 34 L 283.022216796875 59 L 234.022216796875 59 L 234.022216796875 34 Z Z" stroke-miterlimit="10"/></g><g transform="translate(-10,-10) scale(1,1)"><g><path fill="none" stroke="none"/><text fill="#000000" stroke="none" font-family="Arial" font-size="13px" font-style="normal" font-weight="bold" text-decoration="none" x="251.292236328125" y="54.5">eu</text></g></g><g transform="translate(-10,-10) scale(1,1)"><rect fill="#C0C0C0" stroke="none" x="241.022216796875" y="97" width="19.600000000000023" height="15" opacity="0.2"/></g><g transform="translate(-10,-10) scale(1,1)"><rect fill="#C0C0C0" stroke="none" x="241.022216796875" y="111" width="49" height="25" opacity="0.2"/></g><g transform="translate(-10,-10) scale(1,1)"><rect fill="#ffffff" stroke="none" x="234.022216796875" y="105" width="49" height="24"/></g><g transform="translate(-10,-10) scale(1,1)"><path fill="none" stroke="#000000" d="M 234.022216796875 105 L 283.022216796875 105 L 283.022216796875 129 L 234.022216796875 129 L 234.022216796875 105 Z Z" stroke-miterlimit="10"/></g><g transform="translate(-10,-10) scale(1,1)"><rect fill="#ffffff" stroke="none" x="234.022216796875" y="90" width="19.599999999999994" height="15"/></g><g transform="translate(-10,-10) scale(1,1)"><path fill="none" stroke="#000000" d="M 234.022216796875 90 L 253.622216796875 90 L 253.622216796875 105 L 234.022216796875 105 L 234.022216796875 90 Z Z" stroke-miterlimit="10"/></g><g transform="translate(-10,-10) scale(1,1)"><rect fill="#ffffff" stroke="none" x="234.022216796875" y="104" width="49" height="25"/></g><g transform="translate(-10,-10) scale(1,1)"><path fill="none" stroke="#000000" d="M 234.022216796875 104 L 283.022216796875 104 L 283.022216796875 129 L 234.022216796875 129 L 234.022216796875 104 Z Z" stroke-miterlimit="10"/></g><g transform="translate(-10,-10) scale(1,1)"><g><path fill="none" stroke="none"/><text fill="#000000" stroke="none" font-family="Arial" font-size="13px" font-style="normal" font-weight="bold" text-decoration="none" x="240.82177734375" y="124.5">stamp</text></g></g><g transform="translate(-10,-10) scale(1,1)"><rect fill="#C0C0C0" stroke="none" x="240.792236328125" y="167" width="22.37382812499999" height="15" opacity="0.2"/></g><g transform="translate(-10,-10) scale(1,1)"><rect fill="#C0C0C0" stroke="none" x="240.792236328125" y="181" width="55.9345703125" height="25" opacity="0.2"/></g><g transform="translate(-10,-10) scale(1,1)"><rect fill="#ffffff" stroke="none" x="233.792236328125" y="175" width="55.9345703125" height="24"/></g><g transform="translate(-10,-10) scale(1,1)"><path fill="none" stroke="#000000" d="M 233.792236328125 175 L 289.726806640625 175 L 289.726806640625 199 L 233.792236328125 199 L 233.792236328125 175 Z Z" stroke-miterlimit="10"/></g><g transform="translate(-10,-10) scale(1,1)"><rect fill="#ffffff" stroke="none" x="233.792236328125" y="160" width="22.37382812499999" height="15"/></g><g transform="translate(-10,-10) scale(1,1)"><path fill="none" stroke="#000000" d="M 233.792236328125 160 L 256.166064453125 160 L 256.166064453125 175 L 233.792236328125 175 L 233.792236328125 160 Z Z" stroke-miterlimit="10"/></g><g transform="translate(-10,-10) scale(1,1)"><rect fill="#ffffff" stroke="none" x="233.792236328125" y="174" width="55.9345703125" height="25"/></g><g transform="translate(-10,-10) scale(1,1)"><path fill="none" stroke="#000000" d="M 233.792236328125 174 L 289.726806640625 174 L 289.726806640625 199 L 233.792236328125 199 L 233.792236328125 174 Z Z" stroke-miterlimit="10"/></g><g transform="translate(-10,-10) scale(1,1)"><g><path fill="none" stroke="none"/><text fill="#000000" stroke="none" font-family="Arial" font-size="13px" font-style="normal" font-weight="bold" text-decoration="none" x="240.799560546875" y="194.5">botsing</text></g></g><g transform="translate(-10,-10) scale(1,1)"><rect fill="#C0C0C0" stroke="none" x="27" y="237" width="40.865820312500006" height="15" opacity="0.2"/></g><g transform="translate(-10,-10) scale(1,1)"><rect fill="#C0C0C0" stroke="none" x="27" y="251" width="102.16455078125" height="25" opacity="0.2"/></g><g transform="translate(-10,-10) scale(1,1)"><rect fill="#ffffff" stroke="none" x="20" y="245" width="102.16455078125" height="24"/></g><g transform="translate(-10,-10) scale(1,1)"><path fill="none" stroke="#000000" d="M 20 245 L 122.16455078125 245 L 122.16455078125 269 L 20 269 L 20 245 Z Z" stroke-miterlimit="10"/></g><g transform="translate(-10,-10) scale(1,1)"><rect fill="#ffffff" stroke="none" x="20" y="230" width="40.8658203125" height="15"/></g><g transform="translate(-10,-10) scale(1,1)"><path fill="none" stroke="#000000" d="M 20 230 L 60.8658203125 230 L 60.8658203125 245 L 20 245 L 20 230 Z Z" stroke-miterlimit="10"/></g><g transform="translate(-10,-10) scale(1,1)"><rect fill="#ffffff" stroke="none" x="20" y="244" width="102.16455078125" height="25"/></g><g transform="translate(-10,-10) scale(1,1)"><path fill="none" stroke="#000000" d="M 20 244 L 122.16455078125 244 L 122.16455078125 269 L 20 269 L 20 244 Z Z" stroke-miterlimit="10"/></g><g transform="translate(-10,-10) scale(1,1)"><g><path fill="none" stroke="none"/><text fill="#000000" stroke="none" font-family="Arial" font-size="13px" font-style="normal" font-weight="bold" text-decoration="none" x="29.530517578125" y="264.5">fitnessfunction</text></g></g><g transform="translate(-10,-10) scale(1,1)"><rect fill="#C0C0C0" stroke="none" x="46.515869140625" y="307" width="24.415234374999997" height="15" opacity="0.2"/></g><g transform="translate(-10,-10) scale(1,1)"><rect fill="#C0C0C0" stroke="none" x="46.515869140625" y="321" width="61.0380859375" height="25" opacity="0.2"/></g><g transform="translate(-10,-10) scale(1,1)"><rect fill="#ffffff" stroke="none" x="39.515869140625" y="315" width="61.0380859375" height="24"/></g><g transform="translate(-10,-10) scale(1,1)"><path fill="none" stroke="#000000" d="M 39.515869140625 315 L 100.553955078125 315 L 100.553955078125 339 L 39.515869140625 339 L 39.515869140625 315 Z Z" stroke-miterlimit="10"/></g><g transform="translate(-10,-10) scale(1,1)"><rect fill="#ffffff" stroke="none" x="39.515869140625" y="300" width="24.415234374999997" height="15"/></g><g transform="translate(-10,-10) scale(1,1)"><path fill="none" stroke="#000000" d="M 39.515869140625 300 L 63.931103515625 300 L 63.931103515625 315 L 39.515869140625 315 L 39.515869140625 300 Z Z" stroke-miterlimit="10"/></g><g transform="translate(-10,-10) scale(1,1)"><rect fill="#ffffff" stroke="none" x="39.515869140625" y="314" width="61.0380859375" height="25"/></g><g transform="translate(-10,-10) scale(1,1)"><path fill="none" stroke="#000000" d="M 39.515869140625 314 L 100.553955078125 314 L 100.553955078125 339 L 39.515869140625 339 L 39.515869140625 314 Z Z" stroke-miterlimit="10"/></g><g transform="translate(-10,-10) scale(1,1)"><g><path fill="none" stroke="none"/><text fill="#000000" stroke="none" font-family="Arial" font-size="13px" font-style="normal" font-weight="bold" text-decoration="none" x="45.828125" y="334.5">testcase</text></g></g><g transform="translate(-10,-10) scale(1,1)"><rect fill="#C0C0C0" stroke="none" x="43.989501953125" y="377" width="25.275976562500006" height="15" opacity="0.2"/></g><g transform="translate(-10,-10) scale(1,1)"><rect fill="#C0C0C0" stroke="none" x="43.989501953125" y="391" width="63.18994140625" height="25" opacity="0.2"/></g><g transform="translate(-10,-10) scale(1,1)"><rect fill="#ffffff" stroke="none" x="36.989501953125" y="385" width="63.18994140625" height="24"/></g><g transform="translate(-10,-10) scale(1,1)"><path fill="none" stroke="#000000" d="M 36.989501953125 385 L 100.179443359375 385 L 100.179443359375 409 L 36.989501953125 409 L 36.989501953125 385 Z Z" stroke-miterlimit="10"/></g><g transform="translate(-10,-10) scale(1,1)"><rect fill="#ffffff" stroke="none" x="36.989501953125" y="370" width="25.2759765625" height="15"/></g><g transform="translate(-10,-10) scale(1,1)"><path fill="none" stroke="#000000" d="M 36.989501953125 370 L 62.265478515625 370 L 62.265478515625 385 L 36.989501953125 385 L 36.989501953125 370 Z Z" stroke-miterlimit="10"/></g><g transform="translate(-10,-10) scale(1,1)"><rect fill="#ffffff" stroke="none" x="36.989501953125" y="384" width="63.18994140625" height="25"/></g><g transform="translate(-10,-10) scale(1,1)"><path fill="none" stroke="#000000" d="M 36.989501953125 384 L 100.179443359375 384 L 100.179443359375 409 L 36.989501953125 409 L 36.989501953125 384 Z Z" stroke-miterlimit="10"/></g><g transform="translate(-10,-10) scale(1,1)"><g><path fill="none" stroke="none"/><text fill="#000000" stroke="none" font-family="Arial" font-size="13px" font-style="normal" font-weight="bold" text-decoration="none" x="44.01904296875" y="404.5">factories</text></g></g><g transform="translate(-10,-10) scale(1,1)"><rect fill="#C0C0C0" stroke="none" x="148.6181640625" y="237" width="19.599999999999994" height="15" opacity="0.2"/></g><g transform="translate(-10,-10) scale(1,1)"><rect fill="#C0C0C0" stroke="none" x="148.6181640625" y="251" width="49" height="25" opacity="0.2"/></g><g transform="translate(-10,-10) scale(1,1)"><rect fill="#ffffff" stroke="none" x="141.6181640625" y="245" width="49" height="24"/></g><g transform="translate(-10,-10) scale(1,1)"><path fill="none" stroke="#000000" d="M 141.6181640625 245 L 190.6181640625 245 L 190.6181640625 269 L 141.6181640625 269 L 141.6181640625 245 Z Z" stroke-miterlimit="10"/></g><g transform="translate(-10,-10) scale(1,1)"><rect fill="#ffffff" stroke="none" x="141.6181640625" y="230" width="19.599999999999994" height="15"/></g><g transform="translate(-10,-10) scale(1,1)"><path fill="none" stroke="#000000" d="M 141.6181640625 230 L 161.2181640625 230 L 161.2181640625 245 L 141.6181640625 245 L 141.6181640625 230 Z Z" stroke-miterlimit="10"/></g><g transform="translate(-10,-10) scale(1,1)"><rect fill="#ffffff" stroke="none" x="141.6181640625" y="244" width="49" height="25"/></g><g transform="translate(-10,-10) scale(1,1)"><path fill="none" stroke="#000000" d="M 141.6181640625 244 L 190.6181640625 244 L 190.6181640625 269 L 141.6181640625 269 L 141.6181640625 244 Z Z" stroke-miterlimit="10"/></g><g transform="translate(-10,-10) scale(1,1)"><g><path fill="none" stroke="none"/><text fill="#000000" stroke="none" font-family="Arial" font-size="13px" font-style="normal" font-weight="bold" text-decoration="none" x="158.88818359375" y="264.5">ga</text></g></g><g transform="translate(-10,-10) scale(1,1)"><rect fill="#C0C0C0" stroke="none" x="146.239501953125" y="307" width="23.83125000000001" height="15" opacity="0.2"/></g><g transform="translate(-10,-10) scale(1,1)"><rect fill="#C0C0C0" stroke="none" x="146.239501953125" y="321" width="59.578125" height="25" opacity="0.2"/></g><g transform="translate(-10,-10) scale(1,1)"><rect fill="#ffffff" stroke="none" x="139.239501953125" y="315" width="59.578125" height="24"/></g><g transform="translate(-10,-10) scale(1,1)"><path fill="none" stroke="#000000" d="M 139.239501953125 315 L 198.817626953125 315 L 198.817626953125 339 L 139.239501953125 339 L 139.239501953125 315 Z Z" stroke-miterlimit="10"/></g><g transform="translate(-10,-10) scale(1,1)"><rect fill="#ffffff" stroke="none" x="139.239501953125" y="300" width="23.83125000000001" height="15"/></g><g transform="translate(-10,-10) scale(1,1)"><path fill="none" stroke="#000000" d="M 139.239501953125 300 L 163.070751953125 300 L 163.070751953125 315 L 139.239501953125 315 L 139.239501953125 300 Z Z" stroke-miterlimit="10"/></g><g transform="translate(-10,-10) scale(1,1)"><rect fill="#ffffff" stroke="none" x="139.239501953125" y="314" width="59.578125" height="25"/></g><g transform="translate(-10,-10) scale(1,1)"><path fill="none" stroke="#000000" d="M 139.239501953125 314 L 198.817626953125 314 L 198.817626953125 339 L 139.239501953125 339 L 139.239501953125 314 Z Z" stroke-miterlimit="10"/></g><g transform="translate(-10,-10) scale(1,1)"><g><path fill="none" stroke="none"/><text fill="#000000" stroke="none" font-family="Arial" font-size="13px" font-style="normal" font-weight="bold" text-decoration="none" x="145.9072265625" y="334.5">strategy</text></g></g><g transform="translate(-10,-10) scale(1,1)"><rect fill="#C0C0C0" stroke="none" x="141.904052734375" y="377" width="27.583984375" height="15" opacity="0.2"/></g><g transform="translate(-10,-10) scale(1,1)"><rect fill="#C0C0C0" stroke="none" x="141.904052734375" y="391" width="68.9599609375" height="25" opacity="0.2"/></g><g transform="translate(-10,-10) scale(1,1)"><rect fill="#ffffff" stroke="none" x="134.904052734375" y="385" width="68.9599609375" height="24"/></g><g transform="translate(-10,-10) scale(1,1)"><path fill="none" stroke="#000000" d="M 134.904052734375 385 L 203.864013671875 385 L 203.864013671875 409 L 134.904052734375 409 L 134.904052734375 385 Z Z" stroke-miterlimit="10"/></g><g transform="translate(-10,-10) scale(1,1)"><rect fill="#ffffff" stroke="none" x="134.904052734375" y="370" width="27.583984375" height="15"/></g><g transform="translate(-10,-10) scale(1,1)"><path fill="none" stroke="#000000" d="M 134.904052734375 370 L 162.488037109375 370 L 162.488037109375 385 L 134.904052734375 385 L 134.904052734375 370 Z Z" stroke-miterlimit="10"/></g><g transform="translate(-10,-10) scale(1,1)"><rect fill="#ffffff" stroke="none" x="134.904052734375" y="384" width="68.9599609375" height="25"/></g><g transform="translate(-10,-10) scale(1,1)"><path fill="none" stroke="#000000" d="M 134.904052734375 384 L 203.864013671875 384 L 203.864013671875 409 L 134.904052734375 409 L 134.904052734375 384 Z Z" stroke-miterlimit="10"/></g><g transform="translate(-10,-10) scale(1,1)"><g><path fill="none" stroke="none"/><text fill="#000000" stroke="none" font-family="Arial" font-size="13px" font-style="normal" font-weight="bold" text-decoration="none" x="141.924072265625" y="404.5">operators</text></g></g><g transform="translate(-10,-10) scale(1,1)"><rect fill="#C0C0C0" stroke="none" x="228.6181640625" y="237" width="35.66582031249999" height="15" opacity="0.2"/></g><g transform="translate(-10,-10) scale(1,1)"><rect fill="#C0C0C0" stroke="none" x="228.6181640625" y="251" width="89.16455078125" height="25" opacity="0.2"/></g><g transform="translate(-10,-10) scale(1,1)"><rect fill="#ffffff" stroke="none" x="221.6181640625" y="245" width="89.16455078125" height="24"/></g><g transform="translate(-10,-10) scale(1,1)"><path fill="none" stroke="#000000" d="M 221.6181640625 245 L 310.78271484375 245 L 310.78271484375 269 L 221.6181640625 269 L 221.6181640625 245 Z Z" stroke-miterlimit="10"/></g><g transform="translate(-10,-10) scale(1,1)"><rect fill="#ffffff" stroke="none" x="221.6181640625" y="230" width="35.66582031249999" height="15"/></g><g transform="translate(-10,-10) scale(1,1)"><path fill="none" stroke="#000000" d="M 221.6181640625 230 L 257.283984375 230 L 257.283984375 245 L 221.6181640625 245 L 221.6181640625 230 Z Z" stroke-miterlimit="10"/></g><g transform="translate(-10,-10) scale(1,1)"><rect fill="#ffffff" stroke="none" x="221.6181640625" y="244" width="89.16455078125" height="25"/></g><g transform="translate(-10,-10) scale(1,1)"><path fill="none" stroke="#000000" d="M 221.6181640625 244 L 310.78271484375 244 L 310.78271484375 269 L 221.6181640625 269 L 221.6181640625 244 Z Z" stroke-miterlimit="10"/></g><g transform="translate(-10,-10) scale(1,1)"><g><path fill="none" stroke="none"/><text fill="#000000" stroke="none" font-family="Arial" font-size="13px" font-style="normal" font-weight="bold" text-decoration="none" x="230.06640625" y="264.5">reproduction</text></g></g><g transform="translate(-10,-10) scale(1,1)"><rect fill="#C0C0C0" stroke="none" x="341.08935546875" y="237" width="19.600000000000023" height="15" opacity="0.2"/></g><g transform="translate(-10,-10) scale(1,1)"><rect fill="#C0C0C0" stroke="none" x="341.08935546875" y="251" width="49" height="25" opacity="0.2"/></g><g transform="translate(-10,-10) scale(1,1)"><rect fill="#ffffff" stroke="none" x="334.08935546875" y="245" width="49" height="24"/></g><g transform="translate(-10,-10) scale(1,1)"><path fill="none" stroke="#000000" d="M 334.08935546875 245 L 383.08935546875 245 L 383.08935546875 269 L 334.08935546875 269 L 334.08935546875 245 Z Z" stroke-miterlimit="10"/></g><g transform="translate(-10,-10) scale(1,1)"><rect fill="#ffffff" stroke="none" x="334.08935546875" y="230" width="19.600000000000023" height="15"/></g><g transform="translate(-10,-10) scale(1,1)"><path fill="none" stroke="#000000" d="M 334.08935546875 230 L 353.68935546875 230 L 353.68935546875 245 L 334.08935546875 245 L 334.08935546875 230 Z Z" stroke-miterlimit="10"/></g><g transform="translate(-10,-10) scale(1,1)"><rect fill="#ffffff" stroke="none" x="334.08935546875" y="244" width="49" height="25"/></g><g transform="translate(-10,-10) scale(1,1)"><path fill="none" stroke="#000000" d="M 334.08935546875 244 L 383.08935546875 244 L 383.08935546875 269 L 334.08935546875 269 L 334.08935546875 244 Z Z" stroke-miterlimit="10"/></g><g transform="translate(-10,-10) scale(1,1)"><g><path fill="none" stroke="none"/><text fill="#000000" stroke="none" font-family="Arial" font-size="13px" font-style="normal" font-weight="bold" text-decoration="none" x="342.6884765625" y="264.5">setup</text></g></g><g transform="translate(-10,-10) scale(1,1)"><rect fill="#C0C0C0" stroke="none" x="421.08935546875" y="237" width="39.4287109375" height="15" opacity="0.2"/></g><g transform="translate(-10,-10) scale(1,1)"><rect fill="#C0C0C0" stroke="none" x="421.08935546875" y="251" width="98.57177734375" height="25" opacity="0.2"/></g><g transform="translate(-10,-10) scale(1,1)"><rect fill="#ffffff" stroke="none" x="414.08935546875" y="245" width="98.57177734375" height="24"/></g><g transform="translate(-10,-10) scale(1,1)"><path fill="none" stroke="#000000" d="M 414.08935546875 245 L 512.6611328125 245 L 512.6611328125 269 L 414.08935546875 269 L 414.08935546875 245 Z Z" stroke-miterlimit="10"/></g><g transform="translate(-10,-10) scale(1,1)"><rect fill="#ffffff" stroke="none" x="414.08935546875" y="230" width="39.4287109375" height="15"/></g><g transform="translate(-10,-10) scale(1,1)"><path fill="none" stroke="#000000" d="M 414.08935546875 230 L 453.51806640625 230 L 453.51806640625 245 L 414.08935546875 245 L 414.08935546875 230 Z Z" stroke-miterlimit="10"/></g><g transform="translate(-10,-10) scale(1,1)"><rect fill="#ffffff" stroke="none" x="414.08935546875" y="244" width="98.57177734375" height="25"/></g><g transform="translate(-10,-10) scale(1,1)"><path fill="none" stroke="#000000" d="M 414.08935546875 244 L 512.6611328125 244 L 512.6611328125 269 L 414.08935546875 269 L 414.08935546875 244 Z Z" stroke-miterlimit="10"/></g><g transform="translate(-10,-10) scale(1,1)"><g><path fill="none" stroke="none"/><text fill="#000000" stroke="none" font-family="Arial" font-size="13px" font-style="normal" font-weight="bold" text-decoration="none" x="422.178955078125" y="264.5">testgeneration</text></g></g><g transform="translate(-10,-10) scale(1,1)"><rect fill="#C0C0C0" stroke="none" x="438.059814453125" y="307" width="23.83125000000001" height="15" opacity="0.2"/></g><g transform="translate(-10,-10) scale(1,1)"><rect fill="#C0C0C0" stroke="none" x="438.059814453125" y="321" width="59.578125" height="25" opacity="0.2"/></g><g transform="translate(-10,-10) scale(1,1)"><rect fill="#ffffff" stroke="none" x="431.059814453125" y="315" width="59.578125" height="24"/></g><g transform="translate(-10,-10) scale(1,1)"><path fill="none" stroke="#000000" d="M 431.059814453125 315 L 490.637939453125 315 L 490.637939453125 339 L 431.059814453125 339 L 431.059814453125 315 Z Z" stroke-miterlimit="10"/></g><g transform="translate(-10,-10) scale(1,1)"><rect fill="#ffffff" stroke="none" x="431.059814453125" y="300" width="23.83125000000001" height="15"/></g><g transform="translate(-10,-10) scale(1,1)"><path fill="none" stroke="#000000" d="M 431.059814453125 300 L 454.891064453125 300 L 454.891064453125 315 L 431.059814453125 315 L 431.059814453125 300 Z Z" stroke-miterlimit="10"/></g><g transform="translate(-10,-10) scale(1,1)"><rect fill="#ffffff" stroke="none" x="431.059814453125" y="314" width="59.578125" height="25"/></g><g transform="translate(-10,-10) scale(1,1)"><path fill="none" stroke="#000000" d="M 431.059814453125 314 L 490.637939453125 314 L 490.637939453125 339 L 431.059814453125 339 L 431.059814453125 314 Z Z" stroke-miterlimit="10"/></g><g transform="translate(-10,-10) scale(1,1)"><g><path fill="none" stroke="none"/><text fill="#000000" stroke="none" font-family="Arial" font-size="13px" font-style="normal" font-weight="bold" text-decoration="none" x="437.7275390625" y="334.5">strategy</text></g></g><g transform="translate(-10,-10) scale(1,1)"><path fill="none" stroke="#000000" d="M 259 89 Q 259 75 259 60" stroke-miterlimit="10"/></g><g transform="translate(-10,-10) scale(1,1)"><path fill="#FFFFFF" stroke="none" d="M 252 67 C 252 63.1340064 255.1340064 60 259 60 C 262.8659936 60 266 63.1340064 266 67 C 266 70.8659936 262.8659936 74 259 74 C 255.1340064 74 252 70.8659936 252 67 Z"/></g><g transform="translate(-10,-10) scale(1,1)"><path fill="none" stroke="#000000" d="M 252 67 C 252 63.1340064 255.1340064 60 259 60 C 262.8659936 60 266 63.1340064 266 67 C 266 70.8659936 262.8659936 74 259 74 C 255.1340064 74 252 70.8659936 252 67 Z" stroke-miterlimit="10"/></g><g transform="translate(-10,-10) scale(1,1)"><path fill="none" stroke="#000000" d="M 259 74 L 259 60" stroke-miterlimit="10"/></g><g transform="translate(-10,-10) scale(1,1)"><path fill="none" stroke="#000000" d="M 266 67 L 252 67" stroke-miterlimit="10"/></g><g transform="translate(-10,-10) scale(1,1)"><path fill="none" stroke="#000000" d="M 260 159 Q 259 145 259 130" stroke-miterlimit="10"/></g><g transform="translate(-10,-10) scale(1,1)"><path fill="#FFFFFF" stroke="none" d="M 252 137 C 252 133.1340064 255.1340064 130 259 130 C 262.8659936 130 266 133.1340064 266 137 C 266 140.8659936 262.8659936 144 259 144 C 255.1340064 144 252 140.8659936 252 137 Z"/></g><g transform="translate(-10,-10) scale(1,1)"><path fill="none" stroke="#000000" d="M 252 137 C 252 133.1340064 255.1340064 130 259 130 C 262.8659936 130 266 133.1340064 266 137 C 266 140.8659936 262.8659936 144 259 144 C 255.1340064 144 252 140.8659936 252 137 Z" stroke-miterlimit="10"/></g><g transform="translate(-10,-10) scale(1,1)"><path fill="none" stroke="#000000" d="M 259 144 L 259 130" stroke-miterlimit="10"/></g><g transform="translate(-10,-10) scale(1,1)"><path fill="none" stroke="#000000" d="M 266 137 L 252 137" stroke-miterlimit="10"/></g><g transform="translate(-10,-10) scale(1,1)"><path fill="none" stroke="#000000" d="M 68 229 Q 66 215 233 184" stroke-miterlimit="10"/></g><g transform="translate(-10,-10) scale(1,1)"><path fill="#FFFFFF" stroke="none" d="M 219.11757317800337 185.27757623641853 C 219.11757317800337 181.41158263641853 222.25157957800337 178.27757623641853 226.11757317800337 178.27757623641853 C 229.98356677800336 178.27757623641853 233.11757317800337 181.41158263641853 233.11757317800337 185.27757623641853 C 233.11757317800337 189.14356983641852 229.98356677800336 192.27757623641853 226.11757317800337 192.27757623641853 C 222.25157957800337 192.27757623641853 219.11757317800337 189.14356983641852 219.11757317800337 185.27757623641853 Z"/></g><g transform="translate(-10,-10) scale(1,1)"><path fill="none" stroke="#000000" d="M 219.11757317800337 185.27757623641853 C 219.11757317800337 181.41158263641853 222.25157957800337 178.27757623641853 226.11757317800337 178.27757623641853 C 229.98356677800336 178.27757623641853 233.11757317800337 181.41158263641853 233.11757317800337 185.27757623641853 C 233.11757317800337 189.14356983641852 229.98356677800336 192.27757623641853 226.11757317800337 192.27757623641853 C 222.25157957800337 192.27757623641853 219.11757317800337 189.14356983641852 219.11757317800337 185.27757623641853 Z" stroke-miterlimit="10"/></g><g transform="translate(-10,-10) scale(1,1)"><path fill="none" stroke="#000000" d="M 219.23514635600674 186.55515247283708 L 233 184" stroke-miterlimit="10"/></g><g transform="translate(-10,-10) scale(1,1)"><path fill="none" stroke="#000000" d="M 227.3951494144219 192.16000305841516 L 224.83999694158484 178.3951494144219" stroke-miterlimit="10"/></g><g transform="translate(-10,-10) scale(1,1)"><path fill="none" stroke="#000000" d="M 68 299 Q 66 285 68 270" stroke-miterlimit="10"/></g><g transform="translate(-10,-10) scale(1,1)"><path fill="#FFFFFF" stroke="none" d="M 60.07485395936287 276.93859530477846 C 60.07485395936287 273.07260170477844 63.208860359362866 269.93859530477846 67.07485395936287 269.93859530477846 C 70.94084755936287 269.93859530477846 74.07485395936287 273.07260170477844 74.07485395936287 276.93859530477846 C 74.07485395936287 280.8045889047785 70.94084755936287 283.93859530477846 67.07485395936287 283.93859530477846 C 63.208860359362866 283.93859530477846 60.07485395936287 280.8045889047785 60.07485395936287 276.93859530477846 Z"/></g><g transform="translate(-10,-10) scale(1,1)"><path fill="none" stroke="#000000" d="M 60.07485395936287 276.93859530477846 C 60.07485395936287 273.07260170477844 63.208860359362866 269.93859530477846 67.07485395936287 269.93859530477846 C 70.94084755936287 269.93859530477846 74.07485395936287 273.07260170477844 74.07485395936287 276.93859530477846 C 74.07485395936287 280.8045889047785 70.94084755936287 283.93859530477846 67.07485395936287 283.93859530477846 C 63.208860359362866 283.93859530477846 60.07485395936287 280.8045889047785 60.07485395936287 276.93859530477846 Z" stroke-miterlimit="10"/></g><g transform="translate(-10,-10) scale(1,1)"><path fill="none" stroke="#000000" d="M 66.14970791872575 283.87719060955686 L 68 270" stroke-miterlimit="10"/></g><g transform="translate(-10,-10) scale(1,1)"><path fill="none" stroke="#000000" d="M 74.01344926414131 277.8637413454156 L 60.136258654584424 276.01344926414134" stroke-miterlimit="10"/></g><g transform="translate(-10,-10) scale(1,1)"><path fill="none" stroke="#000000" d="M 67 369 Q 66 355 68 340" stroke-miterlimit="10"/></g><g transform="translate(-10,-10) scale(1,1)"><path fill="#FFFFFF" stroke="none" d="M 60.07485395936287 346.93859530477846 C 60.07485395936287 343.07260170477844 63.208860359362866 339.93859530477846 67.07485395936287 339.93859530477846 C 70.94084755936287 339.93859530477846 74.07485395936287 343.07260170477844 74.07485395936287 346.93859530477846 C 74.07485395936287 350.8045889047785 70.94084755936287 353.93859530477846 67.07485395936287 353.93859530477846 C 63.208860359362866 353.93859530477846 60.07485395936287 350.8045889047785 60.07485395936287 346.93859530477846 Z"/></g><g transform="translate(-10,-10) scale(1,1)"><path fill="none" stroke="#000000" d="M 60.07485395936287 346.93859530477846 C 60.07485395936287 343.07260170477844 63.208860359362866 339.93859530477846 67.07485395936287 339.93859530477846 C 70.94084755936287 339.93859530477846 74.07485395936287 343.07260170477844 74.07485395936287 346.93859530477846 C 74.07485395936287 350.8045889047785 70.94084755936287 353.93859530477846 67.07485395936287 353.93859530477846 C 63.208860359362866 353.93859530477846 60.07485395936287 350.8045889047785 60.07485395936287 346.93859530477846 Z" stroke-miterlimit="10"/></g><g transform="translate(-10,-10) scale(1,1)"><path fill="none" stroke="#000000" d="M 66.14970791872575 353.87719060955686 L 68 340" stroke-miterlimit="10"/></g><g transform="translate(-10,-10) scale(1,1)"><path fill="none" stroke="#000000" d="M 74.01344926414131 347.8637413454156 L 60.136258654584424 346.01344926414134" stroke-miterlimit="10"/></g><g transform="translate(-10,-10) scale(1,1)"><path fill="none" stroke="#000000" d="M 167 229 Q 167 215 233 190" stroke-miterlimit="10"/></g><g transform="translate(-10,-10) scale(1,1)"><path fill="#FFFFFF" stroke="none" d="M 219.45388388297098 192.47958943826856 C 219.45388388297098 188.61359583826857 222.587890282971 185.47958943826856 226.45388388297098 185.47958943826856 C 230.31987748297098 185.47958943826856 233.45388388297098 188.61359583826857 233.45388388297098 192.47958943826856 C 233.45388388297098 196.34558303826856 230.31987748297098 199.47958943826856 226.45388388297098 199.47958943826856 C 222.587890282971 199.47958943826856 219.45388388297098 196.34558303826856 219.45388388297098 192.47958943826856 Z"/></g><g transform="translate(-10,-10) scale(1,1)"><path fill="none" stroke="#000000" d="M 219.45388388297098 192.47958943826856 C 219.45388388297098 188.61359583826857 222.587890282971 185.47958943826856 226.45388388297098 185.47958943826856 C 230.31987748297098 185.47958943826856 233.45388388297098 188.61359583826857 233.45388388297098 192.47958943826856 C 233.45388388297098 196.34558303826856 230.31987748297098 199.47958943826856 226.45388388297098 199.47958943826856 C 222.587890282971 199.47958943826856 219.45388388297098 196.34558303826856 219.45388388297098 192.47958943826856 Z" stroke-miterlimit="10"/></g><g transform="translate(-10,-10) scale(1,1)"><path fill="none" stroke="#000000" d="M 219.90776776594197 194.95917887653712 L 233 190" stroke-miterlimit="10"/></g><g transform="translate(-10,-10) scale(1,1)"><path fill="none" stroke="#000000" d="M 228.93347332123955 199.02570555529758 L 223.97429444470242 185.93347332123955" stroke-miterlimit="10"/></g><g transform="translate(-10,-10) scale(1,1)"><path fill="none" stroke="#000000" d="M 168 299 Q 167 285 167 270" stroke-miterlimit="10"/></g><g transform="translate(-10,-10) scale(1,1)"><path fill="#FFFFFF" stroke="none" d="M 160 277 C 160 273.1340064 163.1340064 270 167 270 C 170.8659936 270 174 273.1340064 174 277 C 174 280.8659936 170.8659936 284 167 284 C 163.1340064 284 160 280.8659936 160 277 Z"/></g><g transform="translate(-10,-10) scale(1,1)"><path fill="none" stroke="#000000" d="M 160 277 C 160 273.1340064 163.1340064 270 167 270 C 170.8659936 270 174 273.1340064 174 277 C 174 280.8659936 170.8659936 284 167 284 C 163.1340064 284 160 280.8659936 160 277 Z" stroke-miterlimit="10"/></g><g transform="translate(-10,-10) scale(1,1)"><path fill="none" stroke="#000000" d="M 167 284 L 167 270" stroke-miterlimit="10"/></g><g transform="translate(-10,-10) scale(1,1)"><path fill="none" stroke="#000000" d="M 174 277 L 160 277" stroke-miterlimit="10"/></g><g transform="translate(-10,-10) scale(1,1)"><path fill="none" stroke="#000000" d="M 168 369 Q 167 355 168 340" stroke-miterlimit="10"/></g><g transform="translate(-10,-10) scale(1,1)"><path fill="#FFFFFF" stroke="none" d="M 160.53436692633358 346.98449610499625 C 160.53436692633358 343.11850250499623 163.66837332633358 339.98449610499625 167.53436692633358 339.98449610499625 C 171.40036052633357 339.98449610499625 174.53436692633358 343.11850250499623 174.53436692633358 346.98449610499625 C 174.53436692633358 350.8504897049963 171.40036052633357 353.98449610499625 167.53436692633358 353.98449610499625 C 163.66837332633358 353.98449610499625 160.53436692633358 350.8504897049963 160.53436692633358 346.98449610499625 Z"/></g><g transform="translate(-10,-10) scale(1,1)"><path fill="none" stroke="#000000" d="M 160.53436692633358 346.98449610499625 C 160.53436692633358 343.11850250499623 163.66837332633358 339.98449610499625 167.53436692633358 339.98449610499625 C 171.40036052633357 339.98449610499625 174.53436692633358 343.11850250499623 174.53436692633358 346.98449610499625 C 174.53436692633358 350.8504897049963 171.40036052633357 353.98449610499625 167.53436692633358 353.98449610499625 C 163.66837332633358 353.98449610499625 160.53436692633358 350.8504897049963 160.53436692633358 346.98449610499625 Z" stroke-miterlimit="10"/></g><g transform="translate(-10,-10) scale(1,1)"><path fill="none" stroke="#000000" d="M 167.06873385266718 353.9689922099925 L 168 340" stroke-miterlimit="10"/></g><g transform="translate(-10,-10) scale(1,1)"><path fill="none" stroke="#000000" d="M 174.51886303132983 347.4501291786627 L 160.54987082133732 346.51886303132983" stroke-miterlimit="10"/></g><g transform="translate(-10,-10) scale(1,1)"><path fill="none" stroke="#000000" d="M 264 229 Q 263 215 262 200" stroke-miterlimit="10"/></g><g transform="translate(-10,-10) scale(1,1)"><path fill="#FFFFFF" stroke="none" d="M 255.46563307366642 206.98449610499625 C 255.46563307366642 203.11850250499626 258.5996394736664 199.98449610499625 262.4656330736664 199.98449610499625 C 266.33162667366645 199.98449610499625 269.4656330736664 203.11850250499626 269.4656330736664 206.98449610499625 C 269.4656330736664 210.85048970499625 266.33162667366645 213.98449610499625 262.4656330736664 213.98449610499625 C 258.5996394736664 213.98449610499625 255.46563307366642 210.85048970499625 255.46563307366642 206.98449610499625 Z"/></g><g transform="translate(-10,-10) scale(1,1)"><path fill="none" stroke="#000000" d="M 255.46563307366642 206.98449610499625 C 255.46563307366642 203.11850250499626 258.5996394736664 199.98449610499625 262.4656330736664 199.98449610499625 C 266.33162667366645 199.98449610499625 269.4656330736664 203.11850250499626 269.4656330736664 206.98449610499625 C 269.4656330736664 210.85048970499625 266.33162667366645 213.98449610499625 262.4656330736664 213.98449610499625 C 258.5996394736664 213.98449610499625 255.46563307366642 210.85048970499625 255.46563307366642 206.98449610499625 Z" stroke-miterlimit="10"/></g><g transform="translate(-10,-10) scale(1,1)"><path fill="none" stroke="#000000" d="M 262.93126614733285 213.96899220999254 L 262 200" stroke-miterlimit="10"/></g><g transform="translate(-10,-10) scale(1,1)"><path fill="none" stroke="#000000" d="M 269.4501291786627 206.51886303132983 L 255.48113696867017 207.45012917866268" stroke-miterlimit="10"/></g><g transform="translate(-10,-10) scale(1,1)"><path fill="none" stroke="#000000" d="M 359 229 Q 359 215 291 190" stroke-miterlimit="10"/></g><g transform="translate(-10,-10) scale(1,1)"><path fill="#FFFFFF" stroke="none" d="M 290.57004987377377 192.41545951241685 C 290.57004987377377 188.54946591241685 293.70405627377374 185.41545951241685 297.57004987377377 185.41545951241685 C 301.4360434737738 185.41545951241685 304.57004987377377 188.54946591241685 304.57004987377377 192.41545951241685 C 304.57004987377377 196.28145311241684 301.4360434737738 199.41545951241685 297.57004987377377 199.41545951241685 C 293.70405627377374 199.41545951241685 290.57004987377377 196.28145311241684 290.57004987377377 192.41545951241685 Z"/></g><g transform="translate(-10,-10) scale(1,1)"><path fill="none" stroke="#000000" d="M 290.57004987377377 192.41545951241685 C 290.57004987377377 188.54946591241685 293.70405627377374 185.41545951241685 297.57004987377377 185.41545951241685 C 301.4360434737738 185.41545951241685 304.57004987377377 188.54946591241685 304.57004987377377 192.41545951241685 C 304.57004987377377 196.28145311241684 301.4360434737738 199.41545951241685 297.57004987377377 199.41545951241685 C 293.70405627377374 199.41545951241685 290.57004987377377 196.28145311241684 290.57004987377377 192.41545951241685 Z" stroke-miterlimit="10"/></g><g transform="translate(-10,-10) scale(1,1)"><path fill="none" stroke="#000000" d="M 304.1400997475476 194.83091902483366 L 291 190" stroke-miterlimit="10"/></g><g transform="translate(-10,-10) scale(1,1)"><path fill="none" stroke="#000000" d="M 299.9855093861906 185.84540963864305 L 295.15459036135695 198.98550938619064" stroke-miterlimit="10"/></g><g transform="translate(-10,-10) scale(1,1)"><path fill="none" stroke="#000000" d="M 460 229 Q 458 215 291 184" stroke-miterlimit="10"/></g><g transform="translate(-10,-10) scale(1,1)"><path fill="#FFFFFF" stroke="none" d="M 290.88242682199666 185.27757623641853 C 290.88242682199666 181.41158263641853 294.01643322199664 178.27757623641853 297.88242682199666 178.27757623641853 C 301.7484204219967 178.27757623641853 304.88242682199666 181.41158263641853 304.88242682199666 185.27757623641853 C 304.88242682199666 189.14356983641852 301.7484204219967 192.27757623641853 297.88242682199666 192.27757623641853 C 294.01643322199664 192.27757623641853 290.88242682199666 189.14356983641852 290.88242682199666 185.27757623641853 Z"/></g><g transform="translate(-10,-10) scale(1,1)"><path fill="none" stroke="#000000" d="M 290.88242682199666 185.27757623641853 C 290.88242682199666 181.41158263641853 294.01643322199664 178.27757623641853 297.88242682199666 178.27757623641853 C 301.7484204219967 178.27757623641853 304.88242682199666 181.41158263641853 304.88242682199666 185.27757623641853 C 304.88242682199666 189.14356983641852 301.7484204219967 192.27757623641853 297.88242682199666 192.27757623641853 C 294.01643322199664 192.27757623641853 290.88242682199666 189.14356983641852 290.88242682199666 185.27757623641853 Z" stroke-miterlimit="10"/></g><g transform="translate(-10,-10) scale(1,1)"><path fill="none" stroke="#000000" d="M 304.76485364399326 186.55515247283708 L 291 184" stroke-miterlimit="10"/></g><g transform="translate(-10,-10) scale(1,1)"><path fill="none" stroke="#000000" d="M 299.1600030584152 178.3951494144219 L 296.6048505855781 192.16000305841516" stroke-miterlimit="10"/></g><g transform="translate(-10,-10) scale(1,1)"><path fill="none" stroke="#000000" d="M 459 299 Q 458 285 460 270" stroke-miterlimit="10"/></g><g transform="translate(-10,-10) scale(1,1)"><path fill="#FFFFFF" stroke="none" d="M 452.0748539593629 276.93859530477846 C 452.0748539593629 273.07260170477844 455.20886035936286 269.93859530477846 459.0748539593629 269.93859530477846 C 462.9408475593629 269.93859530477846 466.0748539593629 273.07260170477844 466.0748539593629 276.93859530477846 C 466.0748539593629 280.8045889047785 462.9408475593629 283.93859530477846 459.0748539593629 283.93859530477846 C 455.20886035936286 283.93859530477846 452.0748539593629 280.8045889047785 452.0748539593629 276.93859530477846 Z"/></g><g transform="translate(-10,-10) scale(1,1)"><path fill="none" stroke="#000000" d="M 452.0748539593629 276.93859530477846 C 452.0748539593629 273.07260170477844 455.20886035936286 269.93859530477846 459.0748539593629 269.93859530477846 C 462.9408475593629 269.93859530477846 466.0748539593629 273.07260170477844 466.0748539593629 276.93859530477846 C 466.0748539593629 280.8045889047785 462.9408475593629 283.93859530477846 459.0748539593629 283.93859530477846 C 455.20886035936286 283.93859530477846 452.0748539593629 280.8045889047785 452.0748539593629 276.93859530477846 Z" stroke-miterlimit="10"/></g><g transform="translate(-10,-10) scale(1,1)"><path fill="none" stroke="#000000" d="M 458.14970791872577 283.87719060955686 L 460 270" stroke-miterlimit="10"/></g><g transform="translate(-10,-10) scale(1,1)"><path fill="none" stroke="#000000" d="M 466.01344926414134 277.8637413454156 L 452.1362586545844 276.01344926414134" stroke-miterlimit="10"/></g></g></svg>